# xmcd
#
# Track frame offsets:
#	150
#	13339
#	25769
#	37232
#	55862
#	65226
#	72712
#	87197
#	102777
#	116201
#	127263
#	144973
#	157408
#	172232
#
# Disc length: 2500 seconds
#
# Revision: 1
# Processed by: cddbd v1.5.2PL0 Copyright (c) Steve Scherf et al.
# Submitted via: audiograbber 1.83.01
#
DISCID=df09c20e
DTITLE=Carolina Chocolate Drops - Dona Got a Ramblin' Mind
DYEAR=2006
DGENRE=Old Time
TTITLE0=Starry Crown
TTITLE1=Dona Got a Ramblin' Mind
TTITLE2=Rickett's Hornpipe
TTITLE3=Ol' Corn Likker
TTITLE4=Little Margaret
TTITLE5=Dixie
TTITLE6=Black Annie
TTITLE7=Tom Dula
TTITLE8=Georgie Buck
TTITLE9=Old Cat Died
TTITLE10=Black-Eyed Daisy
TTITLE11=Short Life of Trouble
TTITLE12=Sally Ann
TTITLE13=Sourwood Mountain
EXTD=features noted old time fiddler Joe Thompson
EXTT0=
EXTT1=
EXTT2=
EXTT3=
EXTT4=
EXTT5=
EXTT6=
EXTT7=
EXTT8=
EXTT9=
EXTT10=
EXTT11=
EXTT12=
EXTT13=
PLAYORDER=
